<svg width="32" height="32" viewBox="0 0 32 32" fill="none" xmlns="http://www.w3.org/2000/svg">
<rect width="32" height="32" rx="16" fill="#F5F5F5"/>
<path d="M6.19536 22.56L11.4576 15.9822C11.8131 15.5378 12.4887 15.5378 12.8443 15.9822L17.4309 21.7067L20.3287 17.8311C20.6843 17.3511 21.3954 17.3511 21.7509 17.8311L25.3065 22.5778C25.7509 23.1644 25.3243 24 24.5954 24H6.8887C6.14203 24 5.73314 23.1467 6.19536 22.56Z" fill="#C4C4C4"/>
<path d="M21.9287 8C23.4043 8 24.5954 9.19111 24.5954 10.6667C24.5954 12.1422 23.4043 13.3333 21.9287 13.3333C20.4531 13.3333 19.262 12.1422 19.262 10.6667C19.262 9.19111 20.4531 8 21.9287 8Z" fill="#C4C4C4"/>
</svg>
